<svg xmlns="http://www.w3.org/2000/svg" xmlns:xlink="http://www.w3.org/1999/xlink" width="100" zoomAndPan="magnify" viewBox="0 0 75 74.999997" height="100" preserveAspectRatio="xMidYMid meet" version="1.0"><defs><clipPath id="27c4bafe5a"><path d="M 5 5 L 70 5 L 70 70 L 5 70 Z M 5 5 " clip-rule="nonzero"/></clipPath><clipPath id="da13200d33"><path d="M 37.496094 68.175781 C 54.4375 68.175781 68.164062 54.4375 68.164062 37.503906 L 68.953125 37.503906 L 68.164062 37.503906 C 68.164062 20.566406 54.425781 6.835938 37.496094 6.835938 C 20.566406 6.835938 6.828125 20.566406 6.828125 37.496094 L 6.039062 37.496094 L 6.828125 37.496094 C 6.828125 54.4375 20.566406 68.164062 37.496094 68.164062 L 37.496094 68.953125 L 37.496094 68.164062 M 37.496094 69.738281 C 19.691406 69.75 5.25 55.308594 5.25 37.496094 C 5.25 19.683594 19.691406 5.25 37.496094 5.25 C 55.296875 5.25 69.738281 19.691406 69.738281 37.496094 C 69.738281 55.296875 55.296875 69.738281 37.496094 69.738281 Z M 37.496094 69.738281 " clip-rule="nonzero"/></clipPath><clipPath id="b716734a8e"><path d="M 16.699219 15 L 58.59375 15 L 58.59375 56.835938 L 16.699219 56.835938 Z M 16.699219 15 " clip-rule="nonzero"/></clipPath><clipPath id="b325de4ac6"><path d="M 39.523438 48.660156 L 43.398438 48.660156 C 45.488281 48.660156 46.726562 50.539062 45.929688 52.484375 L 45.898438 52.589844 L 46.949219 52.683594 C 48.660156 52.691406 49.542969 53.53125 49.542969 54.679688 C 49.542969 55.824219 48.671875 56.695312 47.492188 56.695312 L 27.496094 56.695312 C 26.320312 56.695312 25.449219 55.824219 25.449219 54.679688 C 25.449219 53.554688 26.332031 52.691406 27.476562 52.683594 L 28.546875 52.683594 C 28.808594 52 28.683594 51.347656 28.871094 50.65625 C 29.175781 49.5 30.214844 48.671875 31.414062 48.671875 L 35.34375 48.660156 C 35.375 48.660156 35.394531 48.648438 35.445312 48.640625 L 35.445312 22.488281 C 32.421875 24.585938 29.082031 25.710938 25.40625 25.910156 L 25.523438 26.214844 C 27.390625 30.722656 29.1875 35.101562 31.066406 39.460938 C 31.5 40.46875 31.507812 41.414062 31.257812 42.421875 C 30.449219 45.65625 27.433594 48.175781 23.652344 48.007812 C 20.40625 47.863281 17.488281 45.320312 16.855469 41.992188 C 16.699219 41.183594 16.753906 40.425781 17.089844 39.636719 L 22.632812 26.363281 C 22.6875 26.234375 22.726562 26.109375 22.792969 25.929688 L 22.328125 25.929688 C 20.953125 25.921875 20.082031 25.058594 20.082031 23.90625 C 20.082031 22.78125 20.964844 21.917969 22.117188 21.917969 C 26.804688 21.917969 31.015625 20.523438 34.691406 17.582031 L 36.824219 15.585938 C 37.316406 15.101562 37.652344 15.082031 38.125 15.597656 C 40.929688 18.609375 44.34375 20.566406 48.355469 21.457031 L 52.828125 21.917969 C 53.878906 21.917969 54.742188 22.664062 54.855469 23.652344 C 54.972656 24.714844 54.308594 25.667969 53.269531 25.878906 L 52.554688 25.921875 L 52.589844 27.003906 C 54.511719 31.613281 56.210938 35.730469 57.953125 39.828125 C 58.332031 40.710938 58.207031 41.550781 58.007812 42.398438 C 57.199219 45.71875 54.132812 48.1875 50.382812 48.007812 C 47.148438 47.851562 44.207031 45.289062 43.597656 41.96875 C 43.449219 41.160156 43.503906 40.40625 43.839844 39.617188 L 49.394531 26.339844 C 49.449219 26.214844 49.5 26.089844 49.5625 25.921875 C 45.875 25.722656 42.546875 24.597656 39.5 22.488281 Z M 56.546875 39.941406 L 50.875 26.332031 C 48.953125 30.929688 47.085938 35.425781 45.203125 39.941406 Z M 18.441406 39.941406 L 29.785156 39.941406 C 27.894531 35.414062 26.027344 30.929688 24.113281 26.339844 L 18.441406 39.941406 M 37.410156 16.953125 L 37.335938 17.015625 C 34.460938 19.882812 31.109375 21.75 27.246094 22.675781 L 22.234375 23.230469 C 21.75 23.222656 21.4375 23.503906 21.4375 23.90625 L 21.730469 24.578125 C 23.800781 24.523438 25.449219 24.585938 27.078125 24.367188 C 30.847656 23.863281 34.101562 22.222656 36.832031 19.578125 L 37.621094 19.074219 C 39.15625 20.566406 40.269531 21.425781 41.488281 22.140625 C 44.007812 23.621094 46.738281 24.417969 49.648438 24.546875 L 52.820312 24.566406 C 53.238281 24.566406 53.53125 24.261719 53.53125 23.90625 L 53.238281 23.265625 L 52.535156 23.230469 C 48.21875 23.199219 44.375 22.046875 40.917969 19.703125 L 37.402344 16.953125 M 18.171875 41.316406 C 18.347656 43.816406 20.636719 46.695312 24.199219 46.632812 C 27.90625 46.570312 29.933594 43.511719 30.039062 41.316406 Z M 44.953125 41.316406 C 45.027344 43.535156 47.15625 46.621094 50.898438 46.644531 C 53.910156 46.652344 56.9375 43.914062 56.789062 41.316406 Z M 37.484375 49.992188 L 31.550781 49.992188 C 30.730469 49.992188 30.132812 50.570312 30.132812 51.328125 L 30.730469 52.652344 C 31.761719 52.671875 31.992188 52.671875 32.210938 52.671875 L 43.324219 52.671875 C 44.039062 52.671875 44.554688 52.355469 44.753906 51.8125 C 45.097656 50.90625 44.4375 50.003906 43.410156 50.003906 L 37.472656 50.003906 M 38.144531 48.648438 L 38.144531 48.125 C 38.144531 39.4375 38.136719 30.753906 38.167969 22.066406 L 37.945312 21.140625 L 36.792969 21.5 C 36.8125 30.773438 36.800781 39.460938 36.800781 48.144531 L 36.800781 48.648438 Z M 37.515625 54.015625 L 27.613281 54.015625 C 27.085938 54.015625 26.773438 54.277344 26.761719 54.679688 L 27.085938 55.339844 L 27.71875 55.351562 L 47.179688 55.351562 C 47.292969 55.351562 47.398438 55.359375 47.515625 55.351562 L 48.1875 55.035156 L 47.914062 54.058594 L 47.273438 54.015625 Z M 37.515625 54.015625 " clip-rule="nonzero"/></clipPath><clipPath id="b98c4ad2a2"><path d="M 47.753906 34 L 53.320312 34 L 53.320312 38.964844 L 47.753906 38.964844 Z M 47.753906 34 " clip-rule="nonzero"/></clipPath><clipPath id="b47d756909"><path d="M 52.367188 34.1875 L 53.050781 34.734375 C 52.914062 35.65625 52.417969 36.277344 51.925781 36.898438 L 51.171875 37.863281 C 50.488281 38.683594 50.089844 38.765625 49.792969 38.472656 L 47.757812 36.414062 C 48.0625 36.109375 48.367188 35.816406 48.734375 35.445312 L 49.648438 36.445312 C 50.898438 36.003906 51.609375 35.109375 52.355469 34.1875 " clip-rule="nonzero"/></clipPath><clipPath id="f536ff3858"><path d="M 21.386719 33.398438 L 26.660156 33.398438 L 26.660156 38.671875 L 21.386719 38.671875 Z M 21.386719 33.398438 " clip-rule="nonzero"/></clipPath><clipPath id="3d0a048bad"><path d="M 23.242188 35.953125 L 21.636719 34.429688 C 21.960938 34.101562 22.265625 33.808594 22.601562 33.484375 L 23.546875 34.492188 C 24.578125 34.4375 25.058594 33.933594 25.574219 33.398438 L 26.214844 34.125 C 26.066406 34.878906 25.5625 35.375 24.996094 35.917969 L 26.65625 37.410156 C 26.269531 37.789062 25.964844 38.082031 25.648438 38.398438 L 24.691406 37.410156 C 23.664062 37.464844 23.179688 37.96875 22.675781 38.492188 L 22.023438 37.777344 C 22.171875 37.011719 22.675781 36.519531 23.253906 35.960938 " clip-rule="nonzero"/></clipPath></defs><g clip-path="url(#27c4bafe5a)"><g clip-path="url(#da13200d33)"><rect x="-7.5" width="90" fill="#0f62a6" y="-7.5" height="89.999996" fill-opacity="1"/></g></g><g clip-path="url(#b716734a8e)"><g clip-path="url(#b325de4ac6)"><rect x="-7.5" width="90" fill="#000000" y="-7.5" height="89.999996" fill-opacity="1"/></g></g><g clip-path="url(#b98c4ad2a2)"><g clip-path="url(#b47d756909)"><rect x="-7.5" width="90" fill="#000000" y="-7.5" height="89.999996" fill-opacity="1"/></g></g><g clip-path="url(#f536ff3858)"><g clip-path="url(#3d0a048bad)"><rect x="-7.5" width="90" fill="#000000" y="-7.5" height="89.999996" fill-opacity="1"/></g></g></svg>