<svg xmlns="http://www.w3.org/2000/svg" xmlns:xlink="http://www.w3.org/1999/xlink" width="100" zoomAndPan="magnify" viewBox="0 0 75 74.999997" height="100" preserveAspectRatio="xMidYMid meet" version="1.0"><defs><clipPath id="68770e6022"><path d="M 5 5 L 70 5 L 70 70 L 5 70 Z M 5 5 " clip-rule="nonzero"/></clipPath><clipPath id="f1e0223b57"><path d="M 37.496094 68.175781 C 54.4375 68.175781 68.164062 54.4375 68.164062 37.503906 L 68.953125 37.503906 L 68.164062 37.503906 C 68.164062 20.566406 54.425781 6.835938 37.496094 6.835938 C 20.566406 6.835938 6.828125 20.566406 6.828125 37.496094 L 6.039062 37.496094 L 6.828125 37.496094 C 6.828125 54.4375 20.566406 68.164062 37.496094 68.164062 L 37.496094 68.953125 L 37.496094 68.164062 M 37.496094 69.738281 C 19.691406 69.75 5.25 55.308594 5.25 37.496094 C 5.25 19.683594 19.691406 5.25 37.496094 5.25 C 55.296875 5.25 69.738281 19.691406 69.738281 37.496094 C 69.738281 55.296875 55.296875 69.738281 37.496094 69.738281 Z M 37.496094 69.738281 " clip-rule="nonzero"/></clipPath><clipPath id="65b9a04ab7"><path d="M 16.992188 38.085938 L 27.246094 38.085938 L 27.246094 55.078125 L 16.992188 55.078125 Z M 16.992188 38.085938 " clip-rule="nonzero"/></clipPath><clipPath id="30a44678bc"><path d="M 25.4375 55.035156 L 25.4375 54.949219 L 24.816406 54.949219 C 23.367188 54.960938 22.183594 54.960938 21.015625 54.941406 C 19.042969 54.898438 17.539062 53.648438 17.078125 51.683594 L 17.066406 51.652344 L 17.046875 51.601562 L 16.992188 51.464844 L 16.992188 43.722656 L 17.023438 43.628906 L 17.121094 43.304688 L 17.371094 42.328125 C 18.632812 39.648438 20.511719 38.347656 23 38.15625 L 25.355469 38.125 C 25.699219 38.136719 26.046875 38.136719 26.402344 38.136719 L 27.054688 38.136719 L 27.054688 38.808594 L 27.078125 39.050781 C 26.675781 40.195312 26.625 41.234375 26.625 42.210938 L 26.625 45.675781 C 26.625 47.839844 26.625 50.003906 26.625 52.167969 L 26.65625 53.070312 L 26.707031 53.871094 L 26.835938 54.207031 L 26.65625 54.5625 L 26.402344 54.910156 Z M 18.296875 51.203125 L 18.339844 51.304688 C 18.664062 52.757812 19.671875 53.597656 21.046875 53.628906 L 24.515625 53.648438 C 24.796875 53.648438 25.089844 53.648438 25.375 53.648438 L 25.3125 52.683594 C 25.300781 50.023438 25.300781 47.871094 25.300781 45.699219 L 25.300781 42.222656 C 25.300781 41.328125 25.332031 40.394531 25.5625 39.449219 L 25.394531 39.449219 L 23.074219 39.46875 C 21.058594 39.617188 19.597656 40.636719 18.726562 42.484375 L 18.507812 43.113281 L 18.339844 43.765625 Z M 17.066406 51.652344 Z M 17.066406 51.652344 " clip-rule="nonzero"/></clipPath><clipPath id="24959365c5"><path d="M 27.539062 35 L 47.460938 35 L 47.460938 55 L 27.539062 55 Z M 27.539062 35 " clip-rule="nonzero"/></clipPath><clipPath id="a12711ba1c"><path d="M 41.054688 54.949219 L 35.3125 54.949219 C 33.429688 54.949219 31.550781 54.949219 29.671875 54.949219 L 28.589844 54.898438 C 27.78125 54.089844 27.601562 53.585938 27.601562 52.902344 L 27.601562 49.679688 C 27.601562 46.90625 27.601562 44.050781 27.621094 41.234375 C 27.644531 38.386719 29.984375 35.710938 32.832031 35.269531 L 33.652344 35.164062 L 35.382812 35.164062 C 37.347656 35.164062 39.386719 35.152344 41.382812 35.183594 C 44.164062 35.226562 46.875 37.609375 47.292969 40.40625 L 47.398438 41.277344 C 47.398438 43.578125 47.398438 45.457031 47.398438 47.335938 L 47.398438 52.976562 C 47.398438 53.28125 47.398438 54.195312 46.570312 54.65625 L 45.8125 54.949219 C 43.945312 54.960938 42.484375 54.960938 41.054688 54.960938 M 37.503906 53.648438 L 39.292969 53.648438 C 41.285156 53.648438 43.34375 53.648438 45.371094 53.636719 L 45.792969 53.585938 L 46.085938 53.417969 C 46.085938 51.085938 46.085938 49.207031 46.085938 47.324219 L 46.085938 41.6875 C 46.085938 41.328125 46.054688 40.960938 46.003906 40.582031 C 45.675781 38.429688 43.511719 36.519531 41.371094 36.488281 L 34.019531 36.476562 C 33.726562 36.476562 33.410156 36.507812 33.042969 36.558594 C 30.835938 36.898438 28.96875 39.039062 28.945312 41.234375 L 28.925781 49.667969 C 28.925781 50.75 28.925781 51.820312 28.925781 52.890625 L 28.96875 53.417969 L 29.25 53.636719 C 31.5625 53.636719 33.441406 53.636719 35.320312 53.636719 Z M 37.503906 53.648438 " clip-rule="nonzero"/></clipPath><clipPath id="c507d46f5c"><path d="M 29.882812 19.921875 L 45.117188 19.921875 L 45.117188 35.15625 L 29.882812 35.15625 Z M 29.882812 19.921875 " clip-rule="nonzero"/></clipPath><clipPath id="332ca8cc16"><path d="M 37.496094 35.058594 C 33.273438 35.058594 29.953125 31.730469 29.945312 27.464844 C 29.945312 25.480469 30.722656 23.601562 32.148438 22.183594 C 33.578125 20.765625 35.480469 19.964844 37.484375 19.964844 L 37.515625 19.964844 C 39.542969 19.976562 41.453125 20.773438 42.882812 22.222656 C 44.289062 23.652344 45.066406 25.523438 45.046875 27.507812 C 45.015625 31.738281 41.707031 35.058594 37.503906 35.070312 Z M 37.484375 21.277344 C 35.824219 21.277344 34.261719 21.929688 33.074219 23.117188 C 31.886719 24.304688 31.257812 25.835938 31.257812 27.464844 C 31.265625 30.992188 34.007812 33.746094 37.496094 33.746094 L 37.503906 33.746094 C 40.980469 33.746094 43.722656 30.992188 43.746094 27.484375 C 43.753906 25.859375 43.125 24.3125 41.960938 23.136719 C 40.773438 21.941406 39.195312 21.277344 37.515625 21.269531 Z M 37.484375 21.277344 " clip-rule="nonzero"/></clipPath><clipPath id="e2bbc812b0"><path d="M 47.753906 38 L 58 38 L 58 55 L 47.753906 55 Z M 47.753906 38 " clip-rule="nonzero"/></clipPath><clipPath id="8fafb3a194"><path d="M 52.019531 54.960938 L 50.96875 54.960938 C 49.941406 54.949219 49.4375 54.949219 48.933594 54.949219 L 48.25 54.949219 L 48.28125 54.269531 L 48.300781 53.816406 L 48.367188 52.671875 C 48.375 50.203125 48.375 48.1875 48.375 46.171875 L 48.375 42.328125 C 48.375 41.359375 48.34375 40.246094 47.988281 39.21875 L 47.933594 38.957031 L 47.933594 38.828125 L 47.894531 38.0625 L 48.628906 38.105469 C 49.132812 38.136719 49.648438 38.125 50.183594 38.113281 C 51.390625 38.09375 52.640625 38.074219 53.890625 38.546875 C 56.296875 39.449219 57.976562 41.84375 57.996094 44.375 L 57.996094 50.8125 C 57.988281 53.101562 56.273438 54.867188 54.015625 54.917969 L 52.683594 54.941406 M 49.625 53.617188 L 50.183594 53.617188 C 51.621094 53.628906 52.808594 53.628906 53.984375 53.605469 C 55.539062 53.566406 56.683594 52.386719 56.683594 50.800781 L 56.683594 44.375 C 56.671875 42.378906 55.328125 40.476562 53.429688 39.765625 C 52.410156 39.386719 51.339844 39.394531 50.191406 39.417969 L 49.679688 39.429688 L 49.40625 39.429688 L 49.679688 42.304688 C 49.679688 43.585938 49.679688 44.859375 49.679688 46.140625 L 49.667969 52.199219 C 49.667969 52.671875 49.636719 53.15625 49.617188 53.617188 " clip-rule="nonzero"/></clipPath><clipPath id="dbec5b636d"><path d="M 20.214844 27 L 30.761719 27 L 30.761719 37.5 L 20.214844 37.5 Z M 20.214844 27 " clip-rule="nonzero"/></clipPath><clipPath id="48ac4f62a7"><path d="M 25.394531 37.242188 C 24.050781 37.242188 22.78125 36.707031 21.816406 35.730469 C 20.847656 34.753906 20.332031 33.503906 20.355469 32.171875 C 20.386719 29.40625 22.644531 27.171875 25.386719 27.171875 L 25.417969 27.171875 C 26.773438 27.179688 28.054688 27.726562 29.019531 28.703125 C 29.953125 29.660156 30.46875 30.910156 30.449219 32.222656 C 30.40625 34.996094 28.148438 37.253906 25.40625 37.253906 M 25.394531 28.484375 C 23.367188 28.484375 21.699219 30.144531 21.679688 32.191406 C 21.667969 33.167969 22.054688 34.101562 22.757812 34.816406 C 23.464844 35.53125 24.417969 35.941406 25.417969 35.941406 C 27.445312 35.941406 29.113281 34.261719 29.144531 32.203125 C 29.15625 31.246094 28.789062 30.332031 28.09375 29.617188 C 27.382812 28.894531 26.4375 28.484375 25.425781 28.484375 Z M 25.394531 28.484375 " clip-rule="nonzero"/></clipPath><clipPath id="9604c5a7ae"><path d="M 44.53125 27 L 54.785156 27 L 54.785156 37.5 L 44.53125 37.5 Z M 44.53125 27 " clip-rule="nonzero"/></clipPath><clipPath id="ed5d48e3c0"><path d="M 49.605469 37.242188 L 49.585938 37.242188 C 46.84375 37.234375 44.585938 34.972656 44.554688 32.203125 C 44.542969 30.890625 45.058594 29.628906 46.003906 28.671875 C 46.957031 27.695312 48.238281 27.171875 49.59375 27.160156 L 49.605469 27.160156 C 52.367188 27.160156 54.625 29.40625 54.644531 32.171875 C 54.65625 33.503906 54.132812 34.765625 53.164062 35.730469 C 52.199219 36.695312 50.9375 37.234375 49.605469 37.234375 M 49.59375 28.460938 C 48.597656 28.460938 47.652344 28.863281 46.9375 29.585938 C 46.246094 30.289062 45.867188 31.214844 45.867188 32.179688 C 45.886719 34.238281 47.558594 35.917969 49.585938 35.917969 L 49.59375 35.917969 C 50.582031 35.917969 51.515625 35.519531 52.230469 34.804688 C 52.945312 34.09375 53.332031 33.15625 53.324219 32.171875 C 53.3125 30.121094 51.632812 28.460938 49.59375 28.460938 Z M 49.59375 28.460938 " clip-rule="nonzero"/></clipPath></defs><g clip-path="url(#68770e6022)"><g clip-path="url(#f1e0223b57)"><rect x="-7.5" width="90" fill="#0f62a6" y="-7.5" height="89.999996" fill-opacity="1"/></g></g><g clip-path="url(#65b9a04ab7)"><g clip-path="url(#30a44678bc)"><rect x="-7.5" width="90" fill="#000000" y="-7.5" height="89.999996" fill-opacity="1"/></g></g><g clip-path="url(#24959365c5)"><g clip-path="url(#a12711ba1c)"><rect x="-7.5" width="90" fill="#000000" y="-7.5" height="89.999996" fill-opacity="1"/></g></g><g clip-path="url(#c507d46f5c)"><g clip-path="url(#332ca8cc16)"><rect x="-7.5" width="90" fill="#000000" y="-7.5" height="89.999996" fill-opacity="1"/></g></g><g clip-path="url(#e2bbc812b0)"><g clip-path="url(#8fafb3a194)"><rect x="-7.5" width="90" fill="#000000" y="-7.5" height="89.999996" fill-opacity="1"/></g></g><g clip-path="url(#dbec5b636d)"><g clip-path="url(#48ac4f62a7)"><rect x="-7.5" width="90" fill="#000000" y="-7.5" height="89.999996" fill-opacity="1"/></g></g><g clip-path="url(#9604c5a7ae)"><g clip-path="url(#ed5d48e3c0)"><rect x="-7.5" width="90" fill="#000000" y="-7.5" height="89.999996" fill-opacity="1"/></g></g></svg>