<svg xmlns="http://www.w3.org/2000/svg" xmlns:xlink="http://www.w3.org/1999/xlink" width="70" zoomAndPan="magnify" viewBox="0 0 52.5 52.499999" height="70" preserveAspectRatio="xMidYMid meet" version="1.0"><defs><clipPath id="36e59f29e5"><path d="M 1.308594 6.15625 L 50.34375 6.15625 L 50.34375 45.53125 L 1.308594 45.53125 Z M 1.308594 6.15625 " clip-rule="nonzero"/></clipPath></defs><g clip-path="url(#36e59f29e5)"><path fill="#ffffff" d="M 49.902344 44.242188 C 49.152344 44.242188 47.605469 44.238281 46.847656 44.242188 L 42.175781 17.527344 L 39.253906 14.820312 L 42.488281 44.242188 L 40.878906 44.242188 L 37.554688 14.007812 C 37.554688 14.007812 34.558594 15.5 34.492188 15.507812 L 37.1875 44.242188 L 35.574219 44.242188 L 32.488281 11.300781 L 26.792969 6.15625 L 26.792969 10.605469 L 30.945312 14.335938 C 31.101562 14.488281 31.1875 14.671875 31.195312 14.890625 C 31.203125 15.105469 31.136719 15.296875 30.988281 15.460938 C 30.84375 15.621094 30.664062 15.710938 30.445312 15.722656 C 30.226562 15.738281 30.035156 15.671875 29.871094 15.53125 L 26.792969 12.757812 L 26.792969 18.535156 L 31.390625 22.6875 C 31.550781 22.835938 31.636719 23.019531 31.644531 23.238281 C 31.652344 23.457031 31.582031 23.644531 31.4375 23.808594 C 31.289062 23.96875 31.109375 24.054688 30.890625 24.070312 C 30.671875 24.082031 30.484375 24.015625 30.320312 23.871094 L 26.792969 20.699219 L 26.792969 26.476562 L 31.847656 31.027344 C 32.007812 31.179688 32.089844 31.363281 32.097656 31.578125 C 32.105469 31.796875 32.039062 31.984375 31.894531 32.148438 C 31.746094 32.308594 31.566406 32.398438 31.347656 32.414062 C 31.132812 32.425781 30.941406 32.363281 30.773438 32.222656 L 26.792969 28.632812 L 26.792969 34.410156 L 32.296875 39.371094 C 32.457031 39.519531 32.542969 39.703125 32.550781 39.921875 C 32.558594 40.140625 32.492188 40.328125 32.34375 40.492188 C 32.199219 40.65625 32.015625 40.742188 31.800781 40.757812 C 31.582031 40.769531 31.390625 40.707031 31.222656 40.5625 L 26.792969 36.574219 L 26.792969 44.242188 L 25.191406 44.242188 L 25.191406 36.628906 L 20.710938 40.875 C 20.542969 41.03125 20.34375 41.101562 20.117188 41.085938 C 19.890625 41.070312 19.703125 40.976562 19.554688 40.800781 C 19.40625 40.628906 19.347656 40.425781 19.371094 40.199219 C 19.394531 39.972656 19.496094 39.789062 19.675781 39.648438 L 25.191406 34.417969 L 25.191406 28.6875 L 21.230469 32.445312 C 21.070312 32.59375 20.878906 32.664062 20.660156 32.652344 C 20.441406 32.644531 20.257812 32.5625 20.105469 32.402344 C 19.957031 32.242188 19.882812 32.054688 19.886719 31.835938 C 19.890625 31.617188 19.96875 31.429688 20.125 31.277344 L 25.191406 26.476562 L 25.191406 20.757812 L 21.746094 24.015625 C 21.582031 24.164062 21.394531 24.234375 21.175781 24.226562 C 20.957031 24.21875 20.773438 24.136719 20.625 23.976562 C 20.476562 23.816406 20.402344 23.628906 20.40625 23.410156 C 20.410156 23.191406 20.492188 23.007812 20.648438 22.855469 L 25.191406 18.542969 L 25.191406 12.816406 L 22.273438 15.585938 C 22.113281 15.734375 21.921875 15.800781 21.707031 15.792969 C 21.488281 15.785156 21.304688 15.703125 21.15625 15.546875 C 21.003906 15.386719 20.929688 15.199219 20.933594 14.984375 C 20.9375 14.765625 21.015625 14.578125 21.167969 14.425781 L 25.191406 10.605469 L 25.191406 6.230469 L 19.847656 11.292969 L 16.34375 44.242188 L 14.726562 44.242188 L 17.785156 15.515625 L 14.445312 14.007812 L 11.121094 44.242188 L 9.507812 44.242188 L 12.746094 14.820312 L 9.820312 17.527344 L 5.148438 44.242188 C 4.414062 44.226562 2.835938 44.253906 2.097656 44.242188 C 1.878906 44.246094 1.691406 44.324219 1.539062 44.480469 C 1.386719 44.636719 1.308594 44.824219 1.308594 45.042969 C 1.308594 45.261719 1.386719 45.449219 1.539062 45.605469 C 1.691406 45.761719 1.878906 45.839844 2.097656 45.84375 L 49.902344 45.84375 C 50.121094 45.839844 50.308594 45.761719 50.460938 45.605469 C 50.617188 45.449219 50.691406 45.261719 50.691406 45.042969 C 50.691406 44.824219 50.617188 44.636719 50.460938 44.480469 C 50.308594 44.324219 50.121094 44.246094 49.902344 44.242188 Z M 49.902344 44.242188 " fill-opacity="1" fill-rule="nonzero"/></g></svg>