<svg xmlns="http://www.w3.org/2000/svg" xmlns:xlink="http://www.w3.org/1999/xlink" width="70" zoomAndPan="magnify" viewBox="0 0 52.5 52.499999" height="70" preserveAspectRatio="xMidYMid meet" version="1.0"><defs><clipPath id="691449709b"><path d="M 2.015625 2.015625 L 50 2.015625 L 50 50 L 2.015625 50 Z M 2.015625 2.015625 " clip-rule="nonzero"/></clipPath></defs><g clip-path="url(#691449709b)"><path fill="#ffffff" d="M 42.957031 9.039062 C 38.425781 4.511719 32.40625 2.015625 26 2.015625 C 19.59375 2.015625 13.570312 4.511719 9.039062 9.039062 C 4.511719 13.570312 2.015625 19.59375 2.015625 26 C 2.015625 32.40625 4.511719 38.425781 9.039062 42.957031 C 13.570312 47.488281 19.59375 49.980469 26 49.980469 C 32.40625 49.980469 38.425781 47.488281 42.957031 42.957031 C 47.488281 38.425781 49.980469 32.40625 49.980469 26 C 49.980469 19.59375 47.488281 13.570312 42.957031 9.039062 Z M 10.128906 10.128906 C 14.367188 5.890625 20.003906 3.554688 26 3.554688 C 31.992188 3.554688 37.628906 5.890625 41.867188 10.128906 C 46.109375 14.367188 48.441406 20.003906 48.441406 26 C 48.441406 30.980469 46.828125 35.71875 43.847656 39.609375 C 41.476562 36.292969 37.691406 34.332031 33.578125 34.332031 L 18.417969 34.332031 C 14.308594 34.332031 10.519531 36.292969 8.148438 39.609375 C 5.171875 35.71875 3.554688 30.980469 3.554688 26 C 3.554688 20.003906 5.890625 14.367188 10.128906 10.128906 Z M 26 33.070312 C 32.160156 33.070312 37.171875 28.054688 37.171875 21.894531 C 37.171875 15.734375 32.160156 10.71875 26 10.71875 C 19.835938 10.71875 14.824219 15.734375 14.824219 21.894531 C 14.824219 28.054688 19.835938 33.070312 26 33.070312 Z M 26 33.070312 " fill-opacity="1" fill-rule="nonzero"/></g></svg>