<svg xmlns="http://www.w3.org/2000/svg" xmlns:xlink="http://www.w3.org/1999/xlink" width="100" zoomAndPan="magnify" viewBox="0 0 75 74.999997" height="100" preserveAspectRatio="xMidYMid meet" version="1.0"><defs><clipPath id="9cd2d6e318"><path d="M 5 5 L 70 5 L 70 70 L 5 70 Z M 5 5 " clip-rule="nonzero"/></clipPath><clipPath id="fb539d5bfb"><path d="M 37.496094 68.175781 C 54.4375 68.175781 68.164062 54.4375 68.164062 37.503906 L 68.953125 37.503906 L 68.164062 37.503906 C 68.175781 20.566406 54.4375 6.828125 37.496094 6.828125 C 20.554688 6.828125 6.828125 20.566406 6.828125 37.503906 L 6.039062 37.503906 L 6.828125 37.503906 C 6.828125 54.445312 20.566406 68.175781 37.496094 68.175781 L 37.496094 68.960938 L 37.496094 68.175781 M 37.496094 69.75 C 19.695312 69.75 5.253906 55.308594 5.253906 37.503906 C 5.253906 19.703125 19.695312 5.25 37.496094 5.25 C 55.296875 5.25 69.738281 19.691406 69.738281 37.503906 C 69.738281 55.320312 55.296875 69.75 37.496094 69.75 Z M 37.496094 69.75 " clip-rule="nonzero"/></clipPath><clipPath id="84cb08cb4d"><path d="M 13.183594 13.476562 L 61.523438 13.476562 L 61.523438 61.816406 L 13.183594 61.816406 Z M 13.183594 13.476562 " clip-rule="nonzero"/></clipPath><clipPath id="719f8a784b"><path d="M 61.433594 37.976562 L 58.144531 42.914062 C 58.082031 43.007812 58.070312 43.144531 58.070312 43.273438 L 58.375 48.648438 C 58.417969 49.363281 58.269531 49.679688 57.628906 50.003906 L 52.871094 52.417969 C 52.683594 52.515625 52.503906 52.703125 52.398438 52.890625 L 50.003906 57.609375 C 49.710938 58.207031 49.28125 58.449219 48.617188 58.40625 L 43.378906 58.121094 C 43.125 58.113281 42.820312 58.195312 42.609375 58.34375 L 38.273438 61.210938 C 37.714844 61.589844 37.234375 61.589844 36.6875 61.210938 L 32.351562 58.34375 C 32.128906 58.207031 31.835938 58.121094 31.574219 58.132812 L 26.425781 58.417969 C 25.691406 58.46875 25.230469 58.207031 24.914062 57.535156 L 22.625 53.027344 C 22.488281 52.765625 22.226562 52.503906 21.960938 52.367188 L 17.414062 50.066406 C 16.828125 49.773438 16.554688 49.375 16.59375 48.703125 L 16.878906 43.417969 C 16.890625 43.175781 16.804688 42.894531 16.667969 42.683594 L 13.8125 38.347656 C 13.421875 37.777344 13.421875 37.285156 13.8125 36.71875 L 16.699219 32.339844 C 16.816406 32.160156 16.890625 31.90625 16.878906 31.699219 L 16.59375 26.414062 C 16.542969 25.710938 16.828125 25.28125 17.457031 24.976562 L 22.046875 22.65625 C 22.277344 22.539062 22.488281 22.320312 22.613281 22.085938 L 24.933594 17.496094 C 25.238281 16.867188 25.667969 16.59375 26.375 16.648438 L 31.613281 16.941406 C 31.792969 16.953125 32.011719 16.941406 32.148438 16.855469 L 37.128906 13.558594 L 37.78125 13.558594 C 39.367188 14.597656 40.953125 15.660156 42.546875 16.679688 L 43.148438 16.941406 C 45.132812 16.867188 46.8125 16.761719 48.492188 16.667969 L 49.648438 16.753906 C 50.824219 19.074219 51.589844 20.605469 52.378906 22.128906 L 52.695312 22.550781 C 54.480469 23.484375 56.066406 24.28125 57.652344 25.082031 L 58.40625 25.710938 C 58.292969 27.601562 58.25 28.933594 58.125 30.25 C 58.007812 31.414062 58.050781 32.507812 58.933594 33.410156 L 59.015625 33.535156 L 61.390625 37.085938 Z M 29.449219 18.84375 L 27.152344 18.695312 C 26.773438 18.664062 26.574219 18.746094 26.394531 19.105469 L 24.199219 23.441406 C 24.03125 23.746094 23.738281 24.042969 23.433594 24.210938 L 19.179688 26.363281 C 18.769531 26.5625 18.664062 26.792969 18.683594 27.222656 L 18.949219 32.035156 C 18.957031 32.378906 18.832031 32.78125 18.644531 33.074219 L 15.945312 37.179688 C 15.765625 37.453125 15.777344 37.621094 15.953125 37.882812 L 18.589844 41.863281 C 18.863281 42.273438 18.988281 42.683594 18.957031 43.175781 L 18.675781 48.039062 C 18.652344 48.335938 18.75 48.480469 19.011719 48.605469 L 23.316406 50.761719 C 23.738281 50.96875 24.042969 51.253906 24.261719 51.683594 L 26.4375 56.03125 C 26.574219 56.304688 26.71875 56.378906 27.015625 56.359375 L 31.972656 56.097656 C 32.328125 56.085938 32.75 56.199219 33.054688 56.402344 L 37.074219 59.046875 C 37.371094 59.246094 37.582031 59.277344 37.894531 59.058594 L 41.917969 56.402344 C 42.222656 56.210938 42.640625 56.085938 43 56.097656 L 47.90625 56.359375 C 48.25 56.378906 48.429688 56.296875 48.585938 55.96875 L 50.707031 51.746094 C 50.929688 51.285156 51.246094 50.96875 51.695312 50.75 L 56.003906 48.585938 C 56.210938 48.480469 56.347656 48.386719 56.328125 48.101562 L 56.035156 43.105469 C 56.003906 42.664062 56.105469 42.285156 56.347656 41.917969 L 58.996094 37.945312 C 59.214844 37.621094 59.195312 37.410156 58.984375 37.097656 L 56.339844 33.074219 C 56.160156 32.800781 56.035156 32.433594 56.042969 32.117188 L 56.316406 27.066406 C 56.339844 26.761719 56.273438 26.59375 55.980469 26.445312 L 51.71875 24.3125 C 51.246094 24.082031 50.929688 23.757812 50.699219 23.285156 L 48.628906 19.09375 C 48.460938 18.757812 48.28125 18.664062 47.914062 18.695312 L 43.011719 18.957031 C 42.664062 18.96875 42.265625 18.851562 41.96875 18.664062 L 37.863281 15.964844 C 37.601562 15.785156 37.421875 15.796875 37.160156 15.976562 L 33.148438 18.644531 C 32.78125 18.894531 32.414062 19.011719 31.960938 18.980469 L 29.449219 18.851562 " clip-rule="nonzero"/></clipPath><clipPath id="a2f400ea71"><path d="M 22.558594 22.558594 L 52.734375 22.558594 L 52.734375 52.734375 L 22.558594 52.734375 Z M 22.558594 22.558594 " clip-rule="nonzero"/></clipPath><clipPath id="a07c2a9847"><path d="M 37.527344 52.472656 C 29.230469 52.398438 22.582031 45.835938 22.59375 37.515625 C 22.59375 29.207031 29.261719 22.613281 37.507812 22.589844 C 45.742188 22.570312 52.453125 29.230469 52.460938 37.515625 C 52.472656 45.65625 45.941406 52.410156 37.527344 52.484375 M 24.597656 37.515625 C 24.597656 44.625 30.417969 50.476562 37.527344 50.445312 C 44.679688 50.414062 50.445312 44.761719 50.445312 37.527344 C 50.445312 30.300781 44.710938 24.640625 37.527344 24.597656 C 30.425781 24.554688 24.597656 30.417969 24.597656 37.527344 " clip-rule="nonzero"/></clipPath><clipPath id="159bfcc0a4"><path d="M 30.46875 32.8125 L 44.824219 32.8125 L 44.824219 42.480469 L 30.46875 42.480469 Z M 30.46875 32.8125 " clip-rule="nonzero"/></clipPath><clipPath id="7effd13a15"><path d="M 35.699219 39.816406 L 36.195312 39.355469 C 38.503906 37.167969 40.574219 35.214844 42.640625 33.273438 L 43.082031 32.925781 L 44.132812 32.875 L 44.617188 34.019531 L 44.125 34.636719 C 41.539062 37.085938 39.070312 39.40625 36.601562 41.738281 L 35.375 42.441406 C 33.421875 40.445312 32.179688 39.1875 30.972656 37.90625 L 30.585938 37.335938 L 30.660156 36.328125 L 31.6875 35.941406 L 32.339844 36.457031 C 33.589844 37.609375 34.679688 38.617188 35.773438 39.628906 L 35.722656 39.753906 " clip-rule="nonzero"/></clipPath></defs><g clip-path="url(#9cd2d6e318)"><g clip-path="url(#fb539d5bfb)"><rect x="-7.5" width="90" fill="#0f62a6" y="-7.5" height="89.999996" fill-opacity="1"/></g></g><g clip-path="url(#84cb08cb4d)"><g clip-path="url(#719f8a784b)"><rect x="-7.5" width="90" fill="#000000" y="-7.5" height="89.999996" fill-opacity="1"/></g></g><g clip-path="url(#a2f400ea71)"><g clip-path="url(#a07c2a9847)"><rect x="-7.5" width="90" fill="#000000" y="-7.5" height="89.999996" fill-opacity="1"/></g></g><g clip-path="url(#159bfcc0a4)"><g clip-path="url(#7effd13a15)"><rect x="-7.5" width="90" fill="#000000" y="-7.5" height="89.999996" fill-opacity="1"/></g></g></svg>